<mxfile host="app.diagrams.net" modified="2024-06-21T07:59:12.832Z" agent="Mozilla/5.0 (X11; Linux x86_64) AppleWebKit/537.36 (KHTML, like Gecko) Chrome/123.0.0.0 Safari/537.36" etag="CRTrcagP_7grV3zYGWKA" version="24.5.5" type="device" pages="2">
  <diagram name="Page-1" id="0yo1mSa6Mz1Z3rb66y43">
    <mxGraphModel dx="1816" dy="529" grid="1" gridSize="10" guides="1" tooltips="1" connect="1" arrows="1" fold="1" page="1" pageScale="1" pageWidth="827" pageHeight="1169" math="0" shadow="0">
      <root>
        <mxCell id="0" />
        <mxCell id="1" parent="0" />
        <mxCell id="C08kHKY8jDcnMsDLQSFz-5" value="" style="rounded=0;whiteSpace=wrap;html=1;fillColor=none;movable=1;resizable=1;rotatable=1;deletable=1;editable=1;locked=0;connectable=1;sketch=1;curveFitting=1;jiggle=2;" parent="1" vertex="1">
          <mxGeometry x="-40" y="150" width="560" height="370" as="geometry" />
        </mxCell>
        <mxCell id="C08kHKY8jDcnMsDLQSFz-1" value="sre" style="whiteSpace=wrap;html=1;sketch=1;curveFitting=1;jiggle=2;fontFamily=Indie Flower;fontSource=https%3A%2F%2Ffonts.googleapis.com%2Fcss%3Ffamily%3DIndie%2BFlower;fontStyle=1;align=left;verticalAlign=bottom;rounded=1;" parent="1" vertex="1">
          <mxGeometry x="40" y="230" width="400" height="80" as="geometry" />
        </mxCell>
        <mxCell id="C08kHKY8jDcnMsDLQSFz-2" value="master-1" style="whiteSpace=wrap;html=1;sketch=1;curveFitting=1;jiggle=2;fontFamily=Indie Flower;fontSource=https%3A%2F%2Ffonts.googleapis.com%2Fcss%3Ffamily%3DIndie%2BFlower;fontStyle=1;align=left;verticalAlign=bottom;rounded=1;" parent="1" vertex="1">
          <mxGeometry x="40" y="390" width="80" height="80" as="geometry" />
        </mxCell>
        <mxCell id="C08kHKY8jDcnMsDLQSFz-3" value="master-2" style="whiteSpace=wrap;html=1;sketch=1;curveFitting=1;jiggle=2;fontFamily=Indie Flower;fontSource=https%3A%2F%2Ffonts.googleapis.com%2Fcss%3Ffamily%3DIndie%2BFlower;fontStyle=1;align=left;verticalAlign=bottom;rounded=1;" parent="1" vertex="1">
          <mxGeometry x="200" y="390" width="80" height="80" as="geometry" />
        </mxCell>
        <mxCell id="C08kHKY8jDcnMsDLQSFz-4" value="master-3" style="whiteSpace=wrap;html=1;sketch=1;curveFitting=1;jiggle=2;fontFamily=Indie Flower;fontSource=https%3A%2F%2Ffonts.googleapis.com%2Fcss%3Ffamily%3DIndie%2BFlower;fontStyle=1;align=left;verticalAlign=bottom;rounded=1;" parent="1" vertex="1">
          <mxGeometry x="360" y="390" width="80" height="80" as="geometry" />
        </mxCell>
        <mxCell id="G1Dw0Pa4BnXyLDyCYAj--3" value="" style="group" vertex="1" connectable="0" parent="1">
          <mxGeometry x="130" y="120" width="220" height="60" as="geometry" />
        </mxCell>
        <mxCell id="G1Dw0Pa4BnXyLDyCYAj--2" value="Public Gateway" style="whiteSpace=wrap;html=1;sketch=1;curveFitting=1;jiggle=2;fontFamily=Indie Flower;fontSource=https%3A%2F%2Ffonts.googleapis.com%2Fcss%3Ffamily%3DIndie%2BFlower;fontStyle=1" vertex="1" parent="G1Dw0Pa4BnXyLDyCYAj--3">
          <mxGeometry x="30" width="160" height="60" as="geometry" />
        </mxCell>
        <mxCell id="C08kHKY8jDcnMsDLQSFz-8" value="&lt;div&gt;&lt;font face=&quot;Indie Flower&quot; size=&quot;1&quot;&gt;&lt;b&gt;PAT&lt;/b&gt;&lt;/font&gt;&lt;/div&gt;" style="rhombus;whiteSpace=wrap;html=1;sketch=1;curveFitting=1;jiggle=2;verticalAlign=middle;align=center;" parent="G1Dw0Pa4BnXyLDyCYAj--3" vertex="1">
          <mxGeometry x="160" width="60" height="60" as="geometry" />
        </mxCell>
        <mxCell id="G1Dw0Pa4BnXyLDyCYAj--1" value="&lt;div&gt;&lt;font face=&quot;Indie Flower&quot; size=&quot;1&quot;&gt;&lt;b&gt;bastion&lt;/b&gt;&lt;/font&gt;&lt;/div&gt;" style="rhombus;whiteSpace=wrap;html=1;sketch=1;curveFitting=1;jiggle=2;verticalAlign=middle;align=center;" vertex="1" parent="G1Dw0Pa4BnXyLDyCYAj--3">
          <mxGeometry width="60" height="60" as="geometry" />
        </mxCell>
        <mxCell id="G1Dw0Pa4BnXyLDyCYAj--4" value="" style="shape=image;imageAspect=0;aspect=fixed;verticalLabelPosition=bottom;verticalAlign=top;image=https://external-content.duckduckgo.com/iu/?u=https%3A%2F%2Flogowik.com%2Fcontent%2Fuploads%2Fimages%2Fhashicorp-vault8233.jpg&amp;f=1&amp;nofb=1&amp;ipt=33ac2a7f98541ab510184906d1e9be63a5588d068c35a0379f2fb3482eba0ce7&amp;ipo=images;clipPath=inset(36.22% 62.33% 31.78% 14%);" vertex="1" parent="1">
          <mxGeometry x="65.21000000000001" y="415" width="29.58" height="30" as="geometry" />
        </mxCell>
        <mxCell id="G1Dw0Pa4BnXyLDyCYAj--5" value="" style="shape=image;imageAspect=0;aspect=fixed;verticalLabelPosition=bottom;verticalAlign=top;image=https://external-content.duckduckgo.com/iu/?u=https%3A%2F%2Flogowik.com%2Fcontent%2Fuploads%2Fimages%2Fhashicorp-vault8233.jpg&amp;f=1&amp;nofb=1&amp;ipt=33ac2a7f98541ab510184906d1e9be63a5588d068c35a0379f2fb3482eba0ce7&amp;ipo=images;clipPath=inset(36.22% 62.33% 31.78% 14%);" vertex="1" parent="1">
          <mxGeometry x="225.21" y="415" width="29.58" height="30" as="geometry" />
        </mxCell>
        <mxCell id="G1Dw0Pa4BnXyLDyCYAj--6" value="" style="shape=image;imageAspect=0;aspect=fixed;verticalLabelPosition=bottom;verticalAlign=top;image=https://external-content.duckduckgo.com/iu/?u=https%3A%2F%2Flogowik.com%2Fcontent%2Fuploads%2Fimages%2Fhashicorp-vault8233.jpg&amp;f=1&amp;nofb=1&amp;ipt=33ac2a7f98541ab510184906d1e9be63a5588d068c35a0379f2fb3482eba0ce7&amp;ipo=images;clipPath=inset(36.22% 62.33% 31.78% 14%);" vertex="1" parent="1">
          <mxGeometry x="385.21000000000004" y="415" width="29.58" height="30" as="geometry" />
        </mxCell>
        <mxCell id="G1Dw0Pa4BnXyLDyCYAj--7" value="" style="shape=image;imageAspect=0;aspect=fixed;verticalLabelPosition=bottom;verticalAlign=top;image=https://external-content.duckduckgo.com/iu/?u=http%3A%2F%2Fpluspng.com%2Fimg-png%2Fnginx-logo-png-nginx-logo-3630x2496.png&amp;f=1&amp;nofb=1&amp;ipt=228a499d0863659580c339e0fc03e0712e841468e0082a9941ea353815b4f4af&amp;ipo=images;clipPath=inset(18.45% 31.67% 18.93% 31.33%);" vertex="1" parent="1">
          <mxGeometry x="224.68" y="237.5" width="30.11" height="35" as="geometry" />
        </mxCell>
        <mxCell id="G1Dw0Pa4BnXyLDyCYAj--8" value="" style="shape=image;imageAspect=0;aspect=fixed;verticalLabelPosition=bottom;verticalAlign=top;image=https://external-content.duckduckgo.com/iu/?u=https%3A%2F%2Fgitlab.isc.org%2Fuploads%2F-%2Fsystem%2Fproject%2Favatar%2F1%2FBind_9_Mark_ISC_Blue.png&amp;f=1&amp;nofb=1&amp;ipt=587e290589461f42c116c4324f9f0287836372373a840d8a2eb08f374ba1fb7f&amp;ipo=images;" vertex="1" parent="1">
          <mxGeometry x="395" y="236.25" width="37.42" height="37.5" as="geometry" />
        </mxCell>
        <mxCell id="G1Dw0Pa4BnXyLDyCYAj--9" value="" style="shape=image;imageAspect=0;aspect=fixed;verticalLabelPosition=bottom;verticalAlign=top;image=https://external-content.duckduckgo.com/iu/?u=https%3A%2F%2Fcreazilla-store.fra1.digitaloceanspaces.com%2Ficons%2F3253859%2Fgrafana-icon-md.png&amp;f=1&amp;nofb=1&amp;ipt=112ecd3b096e2fa843ac32f5084dace56938d31ccd4b28db5c2b08345de995f7&amp;ipo=images;" vertex="1" parent="1">
          <mxGeometry x="50.00000000000006" y="237.5" width="32.11" height="35" as="geometry" />
        </mxCell>
      </root>
    </mxGraphModel>
  </diagram>
  <diagram name="Copie de Page-1" id="j8O-xAu4WgaWZgTJh0sB">
    <mxGraphModel dx="2261" dy="767" grid="1" gridSize="10" guides="1" tooltips="1" connect="1" arrows="1" fold="1" page="1" pageScale="1" pageWidth="827" pageHeight="1169" math="0" shadow="0">
      <root>
        <mxCell id="KQ32rnV0e1UypqC49VyJ-0" />
        <mxCell id="KQ32rnV0e1UypqC49VyJ-1" parent="KQ32rnV0e1UypqC49VyJ-0" />
        <mxCell id="cppDxNKuxkiZQhSEIAXv-23" style="edgeStyle=orthogonalEdgeStyle;rounded=0;orthogonalLoop=1;jettySize=auto;html=1;exitX=1;exitY=0.5;exitDx=0;exitDy=0;entryX=0;entryY=0.5;entryDx=0;entryDy=0;strokeColor=#7F00FF;strokeWidth=2;align=center;verticalAlign=middle;fontFamily=Helvetica;fontSize=11;fontColor=default;labelBackgroundColor=default;endArrow=none;endFill=0;" edge="1" parent="KQ32rnV0e1UypqC49VyJ-1" source="cppDxNKuxkiZQhSEIAXv-20" target="cppDxNKuxkiZQhSEIAXv-22">
          <mxGeometry relative="1" as="geometry" />
        </mxCell>
        <mxCell id="cppDxNKuxkiZQhSEIAXv-1" value="public gateway" style="whiteSpace=wrap;html=1;sketch=1;curveFitting=1;jiggle=2;fontFamily=Indie Flower;fontSource=https%3A%2F%2Ffonts.googleapis.com%2Fcss%3Ffamily%3DIndie%2BFlower;fontStyle=0;align=center;verticalAlign=top;rounded=1;fontSize=18;" vertex="1" parent="KQ32rnV0e1UypqC49VyJ-1">
          <mxGeometry x="-680" y="86" width="200" height="50" as="geometry" />
        </mxCell>
        <mxCell id="cppDxNKuxkiZQhSEIAXv-0" value="&amp;lt;workspace&amp;gt;-sre" style="whiteSpace=wrap;html=1;sketch=1;curveFitting=1;jiggle=2;fontFamily=Indie Flower;fontSource=https%3A%2F%2Ffonts.googleapis.com%2Fcss%3Ffamily%3DIndie%2BFlower;fontStyle=0;align=center;verticalAlign=top;rounded=1;fontSize=18;" vertex="1" parent="KQ32rnV0e1UypqC49VyJ-1">
          <mxGeometry x="-380" y="86" width="200" height="50" as="geometry" />
        </mxCell>
        <mxCell id="0EsCyrqUPOsvWNxH5G8m-0" value="" style="shape=image;imageAspect=0;aspect=fixed;verticalLabelPosition=bottom;verticalAlign=top;image=data:image/svg+xml,PHN2ZyB4bWxucz0iaHR0cDovL3d3dy53My5vcmcvMjAwMC9zdmciIGZpbGw9Im5vbmUiIHZpZXdCb3g9IjAgMCA3MiA3MiIgaGVpZ2h0PSI3MiIgd2lkdGg9IjcyIj4mI3hhOzxwYXRoIGZpbGw9IiM0RjA1OTkiIGQ9Ik00IDIwQzQgMTEuMTYzNCAxMS4xNjM0IDQgMjAgNEg1MkM2MC44MzY2IDQgNjggMTEuMTYzNCA2OCAyMFY1MkM2OCA2MC44MzY2IDYwLjgzNjYgNjggNTIgNjhIMjBDMTEuMTYzNCA2OCA0IDYwLjgzNjYgNCA1MlYyMFoiLz4mI3hhOzxwYXRoIGZpbGw9IiNDODkzRkYiIGQ9Ik0zNSAzMFYxNi4xMzVIMzdWMzBIMzVaTTUyLjYyOTcgMjQuNzg0N0w0MS43MjU4IDMxLjQxMjNMNDIuNzY0NiAzMy4xMjEzTDUzLjY2ODUgMjYuNDkzOEw1Mi42Mjk3IDI0Ljc4NDdaTTQxLjY4ODggNDAuMjg2OEw0Mi42NDI2IDM4LjUyODlMNTMuODA5MyA0NC41ODcyTDUyLjg1NTYgNDYuMzQ1MUw0MS42ODg4IDQwLjI4NjhaTTM1IDU1Ljg4MVY0MkgzN1Y1NS44ODFIMzVaIiBjbGlwLXJ1bGU9ImV2ZW5vZGQiIGZpbGwtcnVsZT0iZXZlbm9kZCIvPiYjeGE7PHBhdGggZmlsbD0id2hpdGUiIGQ9Ik0zNiA5QzMzLjc5MDkgOSAzMiAxMC43OTA5IDMyIDEzQzMyIDE1LjE0MjIgMzMuNjg0IDE2Ljg5MTEgMzUuODAwNCAxNi45OTUxTDM2IDE3QzM3LjExNzcgMTcgMzguMTI4MyAxNi41NDE2IDM4Ljg1NDEgMTUuODAyNUw1Mi4wNDIyIDIzLjQxNjdDNTIuMDE0NCAyMy42MDcxIDUyIDIzLjgwMTkgNTIgMjRDNTIgMjUuODM0NCA1My4yMzQ5IDI3LjM4MDUgNTQuOTE4NyAyNy44NTIxVjQzLjE0NzlDNTMuMjM0OSA0My42MTk1IDUyIDQ1LjE2NTYgNTIgNDdDNTIgNDcuNTExOSA1Mi4wOTYxIDQ4LjAwMTMgNTIuMjcxNCA0OC40NTExTDM4Ljg1NDIgNTYuMTk3NUMzOC4xNzE4IDU1LjUwMjcgMzcuMjM3OCA1NS4wNTU5IDM2LjE5OTYgNTUuMDA0OUwzNiA1NUMzMy43OTA5IDU1IDMyIDU2Ljc5MDkgMzIgNTlDMzIgNjEuMTQyMiAzMy42ODQgNjIuODkxMSAzNS44MDA0IDYyLjk5NTFMMzYgNjNDMzguMjA5MSA2MyA0MCA2MS4yMDkxIDQwIDU5QzQwIDU4LjYyOTEgMzkuOTQ5NSA1OC4yNjk5IDM5Ljg1NSA1Ny45MjkxTDUzLjQ0ODYgNTAuMDgwOEM1NC4wOTMzIDUwLjYxNTMgNTQuOTA4NCA1MC45NTEzIDU1LjgwMDQgNTAuOTk1MUw1NiA1MUM1OC4yMDkxIDUxIDYwIDQ5LjIwOTEgNjAgNDdDNjAgNDUuMTA3IDU4LjY4NSA0My41MjExIDU2LjkxODcgNDMuMTA2VjI3Ljg5NEM1OC42ODUgMjcuNDc4OSA2MCAyNS44OTMgNjAgMjRDNjAgMjEuODU3OCA1OC4zMTYgMjAuMTA4OSA1Ni4xOTk2IDIwLjAwNDlMNTYgMjBDNTQuNzA4NyAyMCA1My41NjAzIDIwLjYxMTkgNTIuODI5IDIxLjU2MTVMMzkuODU1IDE0LjA3MUMzOS45NDk1IDEzLjczMDEgNDAgMTMuMzcxIDQwIDEzQzQwIDEwLjg1NzggMzguMzE2IDkuMTA4OTIgMzYuMTk5NiA5LjAwNDlMMzYgOVpNMzggNTlDMzggNTcuODk1NCAzNy4xMDQ2IDU3IDM2IDU3QzM0Ljg5NTQgNTcgMzQgNTcuODk1NCAzNCA1OUMzNCA2MC4xMDQ2IDM0Ljg5NTQgNjEgMzYgNjFDMzcuMTA0NiA2MSAzOCA2MC4xMDQ2IDM4IDU5Wk01OCA0N0M1OCA0NS44OTU0IDU3LjEwNDYgNDUgNTYgNDVDNTQuODk1NCA0NSA1NCA0NS44OTU0IDU0IDQ3QzU0IDQ4LjEwNDYgNTQuODk1NCA0OSA1NiA0OUM1Ny4xMDQ2IDQ5IDU4IDQ4LjEwNDYgNTggNDdaTTU4IDI0QzU4IDIyLjg5NTQgNTcuMTA0NiAyMiA1NiAyMkM1NC44OTU0IDIyIDU0IDIyLjg5NTQgNTQgMjRDNTQgMjUuMTA0NiA1NC44OTU0IDI2IDU2IDI2QzU3LjEwNDYgMjYgNTggMjUuMTA0NiA1OCAyNFpNMzggMTNDMzggMTEuODk1NCAzNy4xMDQ2IDExIDM2IDExQzM0Ljg5NTQgMTEgMzQgMTEuODk1NCAzNCAxM0MzNCAxNC4xMDQ2IDM0Ljg5NTQgMTUgMzYgMTVDMzcuMTA0NiAxNSAzOCAxNC4xMDQ2IDM4IDEzWk0yOSAzMEMyOSAyOS40NDc3IDI5LjQ0NzcgMjkgMzAgMjlINDJDNDIuNTUyMyAyOSA0MyAyOS40NDc3IDQzIDMwVjQyQzQzIDQyLjU1MjMgNDIuNTUyMyA0MyA0MiA0M0gzMEMyOS40NDc3IDQzIDI5IDQyLjU1MjMgMjkgNDJWMzdIMTUuNjkyNEwyMC4wMTE1IDQwLjg4NkwyMC4wOTM3IDQwLjk2OUMyMC40MjQ4IDQxLjM0NDYgMjAuNDI5MiA0MS45MTcgMjAuMDg2MiA0Mi4yOTgzQzE5LjcxNjkgNDIuNzA4OSAxOS4wODQ2IDQyLjc0MjMgMTguNjc0IDQyLjM3M0wxMi42MTUxIDM2LjkyMzNDMTIuMjUzOSAzNi43NzI1IDEyIDM2LjQxNTkgMTIgMzZDMTIgMzUuNjQxMiAxMi4xODg5IDM1LjMyNjYgMTIuNDcyNyAzNS4xNTAxTDE4LjY3NCAyOS41NzIzTDE4Ljc2NTIgMjkuNDk5M0MxOS4xNzM2IDI5LjIwOTcgMTkuNzQzMiAyOS4yNjU4IDIwLjA4NjIgMjkuNjQ3MUwyMC4xNTkyIDI5LjczODNDMjAuNDQ4OCAzMC4xNDY3IDIwLjM5MjcgMzAuNzE2MyAyMC4wMTE1IDMxLjA1OTNMMTUuNjMxNiAzNUgyOVYzMFpNMzEgMzFWMzZWNDFINDFWMzFIMzFaIiBjbGlwLXJ1bGU9ImV2ZW5vZGQiIGZpbGwtcnVsZT0iZXZlbm9kZCIvPiYjeGE7PC9zdmc+;" vertex="1" parent="KQ32rnV0e1UypqC49VyJ-1">
          <mxGeometry x="-620" y="120" width="80" height="80" as="geometry" />
        </mxCell>
        <mxCell id="0EsCyrqUPOsvWNxH5G8m-1" value="" style="shape=image;imageAspect=0;aspect=fixed;verticalLabelPosition=bottom;verticalAlign=top;image=data:image/svg+xml,PHN2ZyB4bWxucz0iaHR0cDovL3d3dy53My5vcmcvMjAwMC9zdmciIGZpbGw9Im5vbmUiIHZpZXdCb3g9IjAgMCA3MiA3MiIgaGVpZ2h0PSI3MiIgd2lkdGg9IjcyIj4mI3hhOzxwYXRoIGZpbGw9IiM0RjA1OTkiIGQ9Ik00IDIwQzQgMTEuMTYzNCAxMS4xNjM0IDQgMjAgNEg1MkM2MC44MzY2IDQgNjggMTEuMTYzNCA2OCAyMFY1MkM2OCA2MC44MzY2IDYwLjgzNjYgNjggNTIgNjhIMjBDMTEuMTYzNCA2OCA0IDYwLjgzNjYgNCA1MlYyMFoiLz4mI3hhOzxwYXRoIGZpbGw9IndoaXRlIiBkPSJNMjkuNDkzMyAxNi44ODM0QzI5LjQzNTUgMTYuMzg2IDI5LjAxMjggMTYgMjguNSAxNkMyNy45NDc3IDE2IDI3LjUgMTYuNDQ3NyAyNy41IDE3VjIySDI3QzI0LjIzODYgMjIgMjIgMjQuMjM4NiAyMiAyN1YyNy41SDE3TDE2Ljg4MzQgMjcuNTA2N0MxNi4zODYgMjcuNTY0NSAxNiAyNy45ODcyIDE2IDI4LjVDMTYgMjkuMDUyMyAxNi40NDc3IDI5LjUgMTcgMjkuNUgyMlYzMi41SDE3TDE2Ljg4MzQgMzIuNTA2N0MxNi4zODYgMzIuNTY0NSAxNiAzMi45ODcyIDE2IDMzLjVDMTYgMzQuMDUyMyAxNi40NDc3IDM0LjUgMTcgMzQuNUgyMlYzNy41SDE3TDE2Ljg4MzQgMzcuNTA2N0MxNi4zODYgMzcuNTY0NSAxNiAzNy45ODcyIDE2IDM4LjVDMTYgMzkuMDUyMyAxNi40NDc3IDM5LjUgMTcgMzkuNUgyMlY0Mi41SDE3TDE2Ljg4MzQgNDIuNTA2N0MxNi4zODYgNDIuNTY0NSAxNiA0Mi45ODcyIDE2IDQzLjVDMTYgNDQuMDUyMyAxNi40NDc3IDQ0LjUgMTcgNDQuNUgyMlY0NUMyMiA0Ny43NjE0IDI0LjIzODYgNTAgMjcgNTBIMjcuNVY1NC44MjgzTDI3LjUwNjcgNTQuOTQ0OUMyNy41NjQ1IDU1LjQ0MjIgMjcuOTg3MiA1NS44MjgzIDI4LjUgNTUuODI4M0MyOS4wNTIzIDU1LjgyODMgMjkuNSA1NS4zODA2IDI5LjUgNTQuODI4M1Y1MEgzMi41VjU0LjgyODNMMzIuNTA2NyA1NC45NDQ5QzMyLjU2NDUgNTUuNDQyMiAzMi45ODcyIDU1LjgyODMgMzMuNSA1NS44MjgzQzM0LjA1MjMgNTUuODI4MyAzNC41IDU1LjM4MDYgMzQuNSA1NC44MjgzVjUwSDM3LjVWNTQuODI4M0wzNy41MDY3IDU0Ljk0NDlDMzcuNTY0NSA1NS40NDIyIDM3Ljk4NzIgNTUuODI4MyAzOC41IDU1LjgyODNDMzkuMDUyMyA1NS44MjgzIDM5LjUgNTUuMzgwNiAzOS41IDU0LjgyODNWNTBINDIuNVY1NC44MjgzTDQyLjUwNjcgNTQuOTQ0OUM0Mi41NjQ1IDU1LjQ0MjIgNDIuOTg3MiA1NS44MjgzIDQzLjUgNTUuODI4M0M0NC4wNTIzIDU1LjgyODMgNDQuNSA1NS4zODA2IDQ0LjUgNTQuODI4M1Y1MEg0NUM0Ny43NjE0IDUwIDUwIDQ3Ljc2MTQgNTAgNDVWNDQuNUg1NC44MjgzTDU0Ljk0NDkgNDQuNDkzM0M1NS40NDIyIDQ0LjQzNTUgNTUuODI4MyA0NC4wMTI4IDU1LjgyODMgNDMuNUM1NS44MjgzIDQyLjk0NzcgNTUuMzgwNiA0Mi41IDU0LjgyODMgNDIuNUg1MFYzOS41SDU0LjgyODNMNTQuOTQ0OSAzOS40OTMzQzU1LjQ0MjIgMzkuNDM1NSA1NS44MjgzIDM5LjAxMjggNTUuODI4MyAzOC41QzU1LjgyODMgMzcuOTQ3NyA1NS4zODA2IDM3LjUgNTQuODI4MyAzNy41SDUwVjM0LjVINTQuODI4M0w1NC45NDQ5IDM0LjQ5MzNDNTUuNDQyMiAzNC40MzU1IDU1LjgyODMgMzQuMDEyOCA1NS44MjgzIDMzLjVDNTUuODI4MyAzMi45NDc3IDU1LjM4MDYgMzIuNSA1NC44MjgzIDMyLjVINTBWMjkuNUg1NC44MjgzTDU0Ljk0NDkgMjkuNDkzM0M1NS40NDIyIDI5LjQzNTUgNTUuODI4MyAyOS4wMTI4IDU1LjgyODMgMjguNUM1NS44MjgzIDI3Ljk0NzcgNTUuMzgwNiAyNy41IDU0LjgyODMgMjcuNUg1MFYyN0M1MCAyNC4yMzg2IDQ3Ljc2MTQgMjIgNDUgMjJINDQuNVYxN0w0NC40OTMzIDE2Ljg4MzRDNDQuNDM1NSAxNi4zODYgNDQuMDEyOCAxNiA0My41IDE2QzQyLjk0NzcgMTYgNDIuNSAxNi40NDc3IDQyLjUgMTdWMjJIMzkuNVYxN0wzOS40OTMzIDE2Ljg4MzRDMzkuNDM1NSAxNi4zODYgMzkuMDEyOCAxNiAzOC41IDE2QzM3Ljk0NzcgMTYgMzcuNSAxNi40NDc3IDM3LjUgMTdWMjJIMzQuNVYxN0wzNC40OTMzIDE2Ljg4MzRDMzQuNDM1NSAxNi4zODYgMzQuMDEyOCAxNiAzMy41IDE2QzMyLjk0NzcgMTYgMzIuNSAxNi40NDc3IDMyLjUgMTdWMjJIMjkuNVYxN0wyOS40OTMzIDE2Ljg4MzRaTTQ4IDI4LjVWMjdDNDggMjUuNDAyMyA0Ni43NTExIDI0LjA5NjMgNDUuMTc2MyAyNC4wMDUxTDQ1IDI0SDI3QzI1LjQwMjMgMjQgMjQuMDk2MyAyNS4yNDg5IDI0LjAwNTEgMjYuODIzN0wyNCAyN1Y0NUMyNCA0Ni41OTc3IDI1LjI0ODkgNDcuOTAzNyAyNi44MjM3IDQ3Ljk5NDlMMjcgNDhIMjguNUgzMy41SDM4LjVINDMuNUg0NUM0Ni41OTc3IDQ4IDQ3LjkwMzcgNDYuNzUxMSA0Ny45OTQ5IDQ1LjE3NjNMNDggNDVWNDMuNVYzOC41VjMzLjVWMjguNVoiIGNsaXAtcnVsZT0iZXZlbm9kZCIgZmlsbC1ydWxlPSJldmVub2RkIi8+JiN4YTs8cGF0aCBmaWxsPSIjQzg5M0ZGIiBkPSJNNDQgMzBDNDQgMjguODk1NCA0My4xMDQ2IDI4IDQyIDI4SDMwQzI4Ljg5NTQgMjggMjggMjguODk1NCAyOCAzMFY0MkMyOCA0My4xMDQ2IDI4Ljg5NTQgNDQgMzAgNDRINDJDNDMuMTA0NiA0NCA0NCA0My4xMDQ2IDQ0IDQyVjMwWk0zMCAzMEg0MlY0MkgzMFYzMFoiIGNsaXAtcnVsZT0iZXZlbm9kZCIgZmlsbC1ydWxlPSJldmVub2RkIi8+JiN4YTs8L3N2Zz4=;" vertex="1" parent="KQ32rnV0e1UypqC49VyJ-1">
          <mxGeometry x="-320" y="120" width="80" height="80" as="geometry" />
        </mxCell>
        <mxCell id="0EsCyrqUPOsvWNxH5G8m-2" value="" style="ellipse;whiteSpace=wrap;html=1;aspect=fixed;fillColor=#4f0599;strokeColor=none;" vertex="1" parent="KQ32rnV0e1UypqC49VyJ-1">
          <mxGeometry x="-287.5" y="229" width="15" height="15" as="geometry" />
        </mxCell>
        <mxCell id="0EsCyrqUPOsvWNxH5G8m-4" style="edgeStyle=orthogonalEdgeStyle;rounded=0;orthogonalLoop=1;jettySize=auto;html=1;exitX=0.5;exitY=0;exitDx=0;exitDy=0;entryX=0.5;entryY=0.955;entryDx=0;entryDy=0;entryPerimeter=0;strokeColor=#7F00FF;strokeWidth=2;endArrow=none;endFill=0;" edge="1" parent="KQ32rnV0e1UypqC49VyJ-1" source="0EsCyrqUPOsvWNxH5G8m-2" target="0EsCyrqUPOsvWNxH5G8m-1">
          <mxGeometry relative="1" as="geometry" />
        </mxCell>
        <mxCell id="cppDxNKuxkiZQhSEIAXv-6" value="&amp;lt;workspace&amp;gt;-master-1" style="whiteSpace=wrap;html=1;sketch=1;curveFitting=1;jiggle=2;fontFamily=Indie Flower;fontSource=https%3A%2F%2Ffonts.googleapis.com%2Fcss%3Ffamily%3DIndie%2BFlower;fontStyle=0;align=center;verticalAlign=top;rounded=1;fontSize=18;" vertex="1" parent="KQ32rnV0e1UypqC49VyJ-1">
          <mxGeometry x="-80" y="86" width="200" height="50" as="geometry" />
        </mxCell>
        <mxCell id="cppDxNKuxkiZQhSEIAXv-7" value="" style="shape=image;imageAspect=0;aspect=fixed;verticalLabelPosition=bottom;verticalAlign=top;image=data:image/svg+xml,PHN2ZyB4bWxucz0iaHR0cDovL3d3dy53My5vcmcvMjAwMC9zdmciIGZpbGw9Im5vbmUiIHZpZXdCb3g9IjAgMCA3MiA3MiIgaGVpZ2h0PSI3MiIgd2lkdGg9IjcyIj4mI3hhOzxwYXRoIGZpbGw9IiM0RjA1OTkiIGQ9Ik00IDIwQzQgMTEuMTYzNCAxMS4xNjM0IDQgMjAgNEg1MkM2MC44MzY2IDQgNjggMTEuMTYzNCA2OCAyMFY1MkM2OCA2MC44MzY2IDYwLjgzNjYgNjggNTIgNjhIMjBDMTEuMTYzNCA2OCA0IDYwLjgzNjYgNCA1MlYyMFoiLz4mI3hhOzxwYXRoIGZpbGw9IndoaXRlIiBkPSJNMjkuNDkzMyAxNi44ODM0QzI5LjQzNTUgMTYuMzg2IDI5LjAxMjggMTYgMjguNSAxNkMyNy45NDc3IDE2IDI3LjUgMTYuNDQ3NyAyNy41IDE3VjIySDI3QzI0LjIzODYgMjIgMjIgMjQuMjM4NiAyMiAyN1YyNy41SDE3TDE2Ljg4MzQgMjcuNTA2N0MxNi4zODYgMjcuNTY0NSAxNiAyNy45ODcyIDE2IDI4LjVDMTYgMjkuMDUyMyAxNi40NDc3IDI5LjUgMTcgMjkuNUgyMlYzMi41SDE3TDE2Ljg4MzQgMzIuNTA2N0MxNi4zODYgMzIuNTY0NSAxNiAzMi45ODcyIDE2IDMzLjVDMTYgMzQuMDUyMyAxNi40NDc3IDM0LjUgMTcgMzQuNUgyMlYzNy41SDE3TDE2Ljg4MzQgMzcuNTA2N0MxNi4zODYgMzcuNTY0NSAxNiAzNy45ODcyIDE2IDM4LjVDMTYgMzkuMDUyMyAxNi40NDc3IDM5LjUgMTcgMzkuNUgyMlY0Mi41SDE3TDE2Ljg4MzQgNDIuNTA2N0MxNi4zODYgNDIuNTY0NSAxNiA0Mi45ODcyIDE2IDQzLjVDMTYgNDQuMDUyMyAxNi40NDc3IDQ0LjUgMTcgNDQuNUgyMlY0NUMyMiA0Ny43NjE0IDI0LjIzODYgNTAgMjcgNTBIMjcuNVY1NC44MjgzTDI3LjUwNjcgNTQuOTQ0OUMyNy41NjQ1IDU1LjQ0MjIgMjcuOTg3MiA1NS44MjgzIDI4LjUgNTUuODI4M0MyOS4wNTIzIDU1LjgyODMgMjkuNSA1NS4zODA2IDI5LjUgNTQuODI4M1Y1MEgzMi41VjU0LjgyODNMMzIuNTA2NyA1NC45NDQ5QzMyLjU2NDUgNTUuNDQyMiAzMi45ODcyIDU1LjgyODMgMzMuNSA1NS44MjgzQzM0LjA1MjMgNTUuODI4MyAzNC41IDU1LjM4MDYgMzQuNSA1NC44MjgzVjUwSDM3LjVWNTQuODI4M0wzNy41MDY3IDU0Ljk0NDlDMzcuNTY0NSA1NS40NDIyIDM3Ljk4NzIgNTUuODI4MyAzOC41IDU1LjgyODNDMzkuMDUyMyA1NS44MjgzIDM5LjUgNTUuMzgwNiAzOS41IDU0LjgyODNWNTBINDIuNVY1NC44MjgzTDQyLjUwNjcgNTQuOTQ0OUM0Mi41NjQ1IDU1LjQ0MjIgNDIuOTg3MiA1NS44MjgzIDQzLjUgNTUuODI4M0M0NC4wNTIzIDU1LjgyODMgNDQuNSA1NS4zODA2IDQ0LjUgNTQuODI4M1Y1MEg0NUM0Ny43NjE0IDUwIDUwIDQ3Ljc2MTQgNTAgNDVWNDQuNUg1NC44MjgzTDU0Ljk0NDkgNDQuNDkzM0M1NS40NDIyIDQ0LjQzNTUgNTUuODI4MyA0NC4wMTI4IDU1LjgyODMgNDMuNUM1NS44MjgzIDQyLjk0NzcgNTUuMzgwNiA0Mi41IDU0LjgyODMgNDIuNUg1MFYzOS41SDU0LjgyODNMNTQuOTQ0OSAzOS40OTMzQzU1LjQ0MjIgMzkuNDM1NSA1NS44MjgzIDM5LjAxMjggNTUuODI4MyAzOC41QzU1LjgyODMgMzcuOTQ3NyA1NS4zODA2IDM3LjUgNTQuODI4MyAzNy41SDUwVjM0LjVINTQuODI4M0w1NC45NDQ5IDM0LjQ5MzNDNTUuNDQyMiAzNC40MzU1IDU1LjgyODMgMzQuMDEyOCA1NS44MjgzIDMzLjVDNTUuODI4MyAzMi45NDc3IDU1LjM4MDYgMzIuNSA1NC44MjgzIDMyLjVINTBWMjkuNUg1NC44MjgzTDU0Ljk0NDkgMjkuNDkzM0M1NS40NDIyIDI5LjQzNTUgNTUuODI4MyAyOS4wMTI4IDU1LjgyODMgMjguNUM1NS44MjgzIDI3Ljk0NzcgNTUuMzgwNiAyNy41IDU0LjgyODMgMjcuNUg1MFYyN0M1MCAyNC4yMzg2IDQ3Ljc2MTQgMjIgNDUgMjJINDQuNVYxN0w0NC40OTMzIDE2Ljg4MzRDNDQuNDM1NSAxNi4zODYgNDQuMDEyOCAxNiA0My41IDE2QzQyLjk0NzcgMTYgNDIuNSAxNi40NDc3IDQyLjUgMTdWMjJIMzkuNVYxN0wzOS40OTMzIDE2Ljg4MzRDMzkuNDM1NSAxNi4zODYgMzkuMDEyOCAxNiAzOC41IDE2QzM3Ljk0NzcgMTYgMzcuNSAxNi40NDc3IDM3LjUgMTdWMjJIMzQuNVYxN0wzNC40OTMzIDE2Ljg4MzRDMzQuNDM1NSAxNi4zODYgMzQuMDEyOCAxNiAzMy41IDE2QzMyLjk0NzcgMTYgMzIuNSAxNi40NDc3IDMyLjUgMTdWMjJIMjkuNVYxN0wyOS40OTMzIDE2Ljg4MzRaTTQ4IDI4LjVWMjdDNDggMjUuNDAyMyA0Ni43NTExIDI0LjA5NjMgNDUuMTc2MyAyNC4wMDUxTDQ1IDI0SDI3QzI1LjQwMjMgMjQgMjQuMDk2MyAyNS4yNDg5IDI0LjAwNTEgMjYuODIzN0wyNCAyN1Y0NUMyNCA0Ni41OTc3IDI1LjI0ODkgNDcuOTAzNyAyNi44MjM3IDQ3Ljk5NDlMMjcgNDhIMjguNUgzMy41SDM4LjVINDMuNUg0NUM0Ni41OTc3IDQ4IDQ3LjkwMzcgNDYuNzUxMSA0Ny45OTQ5IDQ1LjE3NjNMNDggNDVWNDMuNVYzOC41VjMzLjVWMjguNVoiIGNsaXAtcnVsZT0iZXZlbm9kZCIgZmlsbC1ydWxlPSJldmVub2RkIi8+JiN4YTs8cGF0aCBmaWxsPSIjQzg5M0ZGIiBkPSJNNDQgMzBDNDQgMjguODk1NCA0My4xMDQ2IDI4IDQyIDI4SDMwQzI4Ljg5NTQgMjggMjggMjguODk1NCAyOCAzMFY0MkMyOCA0My4xMDQ2IDI4Ljg5NTQgNDQgMzAgNDRINDJDNDMuMTA0NiA0NCA0NCA0My4xMDQ2IDQ0IDQyVjMwWk0zMCAzMEg0MlY0MkgzMFYzMFoiIGNsaXAtcnVsZT0iZXZlbm9kZCIgZmlsbC1ydWxlPSJldmVub2RkIi8+JiN4YTs8L3N2Zz4=;" vertex="1" parent="KQ32rnV0e1UypqC49VyJ-1">
          <mxGeometry x="-20" y="120" width="80" height="80" as="geometry" />
        </mxCell>
        <mxCell id="cppDxNKuxkiZQhSEIAXv-8" value="" style="ellipse;whiteSpace=wrap;html=1;aspect=fixed;fillColor=#4f0599;strokeColor=none;" vertex="1" parent="KQ32rnV0e1UypqC49VyJ-1">
          <mxGeometry x="12.5" y="229" width="15" height="15" as="geometry" />
        </mxCell>
        <mxCell id="cppDxNKuxkiZQhSEIAXv-9" style="edgeStyle=orthogonalEdgeStyle;rounded=0;orthogonalLoop=1;jettySize=auto;html=1;exitX=0.5;exitY=0;exitDx=0;exitDy=0;entryX=0.5;entryY=0.955;entryDx=0;entryDy=0;entryPerimeter=0;strokeColor=#7F00FF;strokeWidth=2;endArrow=none;endFill=0;" edge="1" parent="KQ32rnV0e1UypqC49VyJ-1" source="cppDxNKuxkiZQhSEIAXv-8" target="cppDxNKuxkiZQhSEIAXv-7">
          <mxGeometry relative="1" as="geometry" />
        </mxCell>
        <mxCell id="cppDxNKuxkiZQhSEIAXv-10" value="&amp;lt;workspace&amp;gt;-master-2" style="whiteSpace=wrap;html=1;sketch=1;curveFitting=1;jiggle=2;fontFamily=Indie Flower;fontSource=https%3A%2F%2Ffonts.googleapis.com%2Fcss%3Ffamily%3DIndie%2BFlower;fontStyle=0;align=center;verticalAlign=top;rounded=1;fontSize=18;" vertex="1" parent="KQ32rnV0e1UypqC49VyJ-1">
          <mxGeometry x="130" y="86" width="200" height="50" as="geometry" />
        </mxCell>
        <mxCell id="cppDxNKuxkiZQhSEIAXv-11" value="" style="shape=image;imageAspect=0;aspect=fixed;verticalLabelPosition=bottom;verticalAlign=top;image=data:image/svg+xml,PHN2ZyB4bWxucz0iaHR0cDovL3d3dy53My5vcmcvMjAwMC9zdmciIGZpbGw9Im5vbmUiIHZpZXdCb3g9IjAgMCA3MiA3MiIgaGVpZ2h0PSI3MiIgd2lkdGg9IjcyIj4mI3hhOzxwYXRoIGZpbGw9IiM0RjA1OTkiIGQ9Ik00IDIwQzQgMTEuMTYzNCAxMS4xNjM0IDQgMjAgNEg1MkM2MC44MzY2IDQgNjggMTEuMTYzNCA2OCAyMFY1MkM2OCA2MC44MzY2IDYwLjgzNjYgNjggNTIgNjhIMjBDMTEuMTYzNCA2OCA0IDYwLjgzNjYgNCA1MlYyMFoiLz4mI3hhOzxwYXRoIGZpbGw9IndoaXRlIiBkPSJNMjkuNDkzMyAxNi44ODM0QzI5LjQzNTUgMTYuMzg2IDI5LjAxMjggMTYgMjguNSAxNkMyNy45NDc3IDE2IDI3LjUgMTYuNDQ3NyAyNy41IDE3VjIySDI3QzI0LjIzODYgMjIgMjIgMjQuMjM4NiAyMiAyN1YyNy41SDE3TDE2Ljg4MzQgMjcuNTA2N0MxNi4zODYgMjcuNTY0NSAxNiAyNy45ODcyIDE2IDI4LjVDMTYgMjkuMDUyMyAxNi40NDc3IDI5LjUgMTcgMjkuNUgyMlYzMi41SDE3TDE2Ljg4MzQgMzIuNTA2N0MxNi4zODYgMzIuNTY0NSAxNiAzMi45ODcyIDE2IDMzLjVDMTYgMzQuMDUyMyAxNi40NDc3IDM0LjUgMTcgMzQuNUgyMlYzNy41SDE3TDE2Ljg4MzQgMzcuNTA2N0MxNi4zODYgMzcuNTY0NSAxNiAzNy45ODcyIDE2IDM4LjVDMTYgMzkuMDUyMyAxNi40NDc3IDM5LjUgMTcgMzkuNUgyMlY0Mi41SDE3TDE2Ljg4MzQgNDIuNTA2N0MxNi4zODYgNDIuNTY0NSAxNiA0Mi45ODcyIDE2IDQzLjVDMTYgNDQuMDUyMyAxNi40NDc3IDQ0LjUgMTcgNDQuNUgyMlY0NUMyMiA0Ny43NjE0IDI0LjIzODYgNTAgMjcgNTBIMjcuNVY1NC44MjgzTDI3LjUwNjcgNTQuOTQ0OUMyNy41NjQ1IDU1LjQ0MjIgMjcuOTg3MiA1NS44MjgzIDI4LjUgNTUuODI4M0MyOS4wNTIzIDU1LjgyODMgMjkuNSA1NS4zODA2IDI5LjUgNTQuODI4M1Y1MEgzMi41VjU0LjgyODNMMzIuNTA2NyA1NC45NDQ5QzMyLjU2NDUgNTUuNDQyMiAzMi45ODcyIDU1LjgyODMgMzMuNSA1NS44MjgzQzM0LjA1MjMgNTUuODI4MyAzNC41IDU1LjM4MDYgMzQuNSA1NC44MjgzVjUwSDM3LjVWNTQuODI4M0wzNy41MDY3IDU0Ljk0NDlDMzcuNTY0NSA1NS40NDIyIDM3Ljk4NzIgNTUuODI4MyAzOC41IDU1LjgyODNDMzkuMDUyMyA1NS44MjgzIDM5LjUgNTUuMzgwNiAzOS41IDU0LjgyODNWNTBINDIuNVY1NC44MjgzTDQyLjUwNjcgNTQuOTQ0OUM0Mi41NjQ1IDU1LjQ0MjIgNDIuOTg3MiA1NS44MjgzIDQzLjUgNTUuODI4M0M0NC4wNTIzIDU1LjgyODMgNDQuNSA1NS4zODA2IDQ0LjUgNTQuODI4M1Y1MEg0NUM0Ny43NjE0IDUwIDUwIDQ3Ljc2MTQgNTAgNDVWNDQuNUg1NC44MjgzTDU0Ljk0NDkgNDQuNDkzM0M1NS40NDIyIDQ0LjQzNTUgNTUuODI4MyA0NC4wMTI4IDU1LjgyODMgNDMuNUM1NS44MjgzIDQyLjk0NzcgNTUuMzgwNiA0Mi41IDU0LjgyODMgNDIuNUg1MFYzOS41SDU0LjgyODNMNTQuOTQ0OSAzOS40OTMzQzU1LjQ0MjIgMzkuNDM1NSA1NS44MjgzIDM5LjAxMjggNTUuODI4MyAzOC41QzU1LjgyODMgMzcuOTQ3NyA1NS4zODA2IDM3LjUgNTQuODI4MyAzNy41SDUwVjM0LjVINTQuODI4M0w1NC45NDQ5IDM0LjQ5MzNDNTUuNDQyMiAzNC40MzU1IDU1LjgyODMgMzQuMDEyOCA1NS44MjgzIDMzLjVDNTUuODI4MyAzMi45NDc3IDU1LjM4MDYgMzIuNSA1NC44MjgzIDMyLjVINTBWMjkuNUg1NC44MjgzTDU0Ljk0NDkgMjkuNDkzM0M1NS40NDIyIDI5LjQzNTUgNTUuODI4MyAyOS4wMTI4IDU1LjgyODMgMjguNUM1NS44MjgzIDI3Ljk0NzcgNTUuMzgwNiAyNy41IDU0LjgyODMgMjcuNUg1MFYyN0M1MCAyNC4yMzg2IDQ3Ljc2MTQgMjIgNDUgMjJINDQuNVYxN0w0NC40OTMzIDE2Ljg4MzRDNDQuNDM1NSAxNi4zODYgNDQuMDEyOCAxNiA0My41IDE2QzQyLjk0NzcgMTYgNDIuNSAxNi40NDc3IDQyLjUgMTdWMjJIMzkuNVYxN0wzOS40OTMzIDE2Ljg4MzRDMzkuNDM1NSAxNi4zODYgMzkuMDEyOCAxNiAzOC41IDE2QzM3Ljk0NzcgMTYgMzcuNSAxNi40NDc3IDM3LjUgMTdWMjJIMzQuNVYxN0wzNC40OTMzIDE2Ljg4MzRDMzQuNDM1NSAxNi4zODYgMzQuMDEyOCAxNiAzMy41IDE2QzMyLjk0NzcgMTYgMzIuNSAxNi40NDc3IDMyLjUgMTdWMjJIMjkuNVYxN0wyOS40OTMzIDE2Ljg4MzRaTTQ4IDI4LjVWMjdDNDggMjUuNDAyMyA0Ni43NTExIDI0LjA5NjMgNDUuMTc2MyAyNC4wMDUxTDQ1IDI0SDI3QzI1LjQwMjMgMjQgMjQuMDk2MyAyNS4yNDg5IDI0LjAwNTEgMjYuODIzN0wyNCAyN1Y0NUMyNCA0Ni41OTc3IDI1LjI0ODkgNDcuOTAzNyAyNi44MjM3IDQ3Ljk5NDlMMjcgNDhIMjguNUgzMy41SDM4LjVINDMuNUg0NUM0Ni41OTc3IDQ4IDQ3LjkwMzcgNDYuNzUxMSA0Ny45OTQ5IDQ1LjE3NjNMNDggNDVWNDMuNVYzOC41VjMzLjVWMjguNVoiIGNsaXAtcnVsZT0iZXZlbm9kZCIgZmlsbC1ydWxlPSJldmVub2RkIi8+JiN4YTs8cGF0aCBmaWxsPSIjQzg5M0ZGIiBkPSJNNDQgMzBDNDQgMjguODk1NCA0My4xMDQ2IDI4IDQyIDI4SDMwQzI4Ljg5NTQgMjggMjggMjguODk1NCAyOCAzMFY0MkMyOCA0My4xMDQ2IDI4Ljg5NTQgNDQgMzAgNDRINDJDNDMuMTA0NiA0NCA0NCA0My4xMDQ2IDQ0IDQyVjMwWk0zMCAzMEg0MlY0MkgzMFYzMFoiIGNsaXAtcnVsZT0iZXZlbm9kZCIgZmlsbC1ydWxlPSJldmVub2RkIi8+JiN4YTs8L3N2Zz4=;" vertex="1" parent="KQ32rnV0e1UypqC49VyJ-1">
          <mxGeometry x="190" y="120" width="80" height="80" as="geometry" />
        </mxCell>
        <mxCell id="cppDxNKuxkiZQhSEIAXv-12" value="" style="ellipse;whiteSpace=wrap;html=1;aspect=fixed;fillColor=#4f0599;strokeColor=none;" vertex="1" parent="KQ32rnV0e1UypqC49VyJ-1">
          <mxGeometry x="222.5" y="229" width="15" height="15" as="geometry" />
        </mxCell>
        <mxCell id="cppDxNKuxkiZQhSEIAXv-13" style="edgeStyle=orthogonalEdgeStyle;rounded=0;orthogonalLoop=1;jettySize=auto;html=1;exitX=0.5;exitY=0;exitDx=0;exitDy=0;entryX=0.5;entryY=0.955;entryDx=0;entryDy=0;entryPerimeter=0;strokeColor=#7F00FF;strokeWidth=2;endArrow=none;endFill=0;" edge="1" source="cppDxNKuxkiZQhSEIAXv-12" target="cppDxNKuxkiZQhSEIAXv-11" parent="KQ32rnV0e1UypqC49VyJ-1">
          <mxGeometry relative="1" as="geometry" />
        </mxCell>
        <mxCell id="cppDxNKuxkiZQhSEIAXv-14" value="&amp;lt;workspace&amp;gt;-master-3" style="whiteSpace=wrap;html=1;sketch=1;curveFitting=1;jiggle=2;fontFamily=Indie Flower;fontSource=https%3A%2F%2Ffonts.googleapis.com%2Fcss%3Ffamily%3DIndie%2BFlower;fontStyle=0;align=center;verticalAlign=bottom;rounded=1;fontSize=18;" vertex="1" parent="KQ32rnV0e1UypqC49VyJ-1">
          <mxGeometry x="27.5" y="340" width="200" height="50" as="geometry" />
        </mxCell>
        <mxCell id="cppDxNKuxkiZQhSEIAXv-15" value="" style="shape=image;imageAspect=0;aspect=fixed;verticalLabelPosition=bottom;verticalAlign=top;image=data:image/svg+xml,PHN2ZyB4bWxucz0iaHR0cDovL3d3dy53My5vcmcvMjAwMC9zdmciIGZpbGw9Im5vbmUiIHZpZXdCb3g9IjAgMCA3MiA3MiIgaGVpZ2h0PSI3MiIgd2lkdGg9IjcyIj4mI3hhOzxwYXRoIGZpbGw9IiM0RjA1OTkiIGQ9Ik00IDIwQzQgMTEuMTYzNCAxMS4xNjM0IDQgMjAgNEg1MkM2MC44MzY2IDQgNjggMTEuMTYzNCA2OCAyMFY1MkM2OCA2MC44MzY2IDYwLjgzNjYgNjggNTIgNjhIMjBDMTEuMTYzNCA2OCA0IDYwLjgzNjYgNCA1MlYyMFoiLz4mI3hhOzxwYXRoIGZpbGw9IndoaXRlIiBkPSJNMjkuNDkzMyAxNi44ODM0QzI5LjQzNTUgMTYuMzg2IDI5LjAxMjggMTYgMjguNSAxNkMyNy45NDc3IDE2IDI3LjUgMTYuNDQ3NyAyNy41IDE3VjIySDI3QzI0LjIzODYgMjIgMjIgMjQuMjM4NiAyMiAyN1YyNy41SDE3TDE2Ljg4MzQgMjcuNTA2N0MxNi4zODYgMjcuNTY0NSAxNiAyNy45ODcyIDE2IDI4LjVDMTYgMjkuMDUyMyAxNi40NDc3IDI5LjUgMTcgMjkuNUgyMlYzMi41SDE3TDE2Ljg4MzQgMzIuNTA2N0MxNi4zODYgMzIuNTY0NSAxNiAzMi45ODcyIDE2IDMzLjVDMTYgMzQuMDUyMyAxNi40NDc3IDM0LjUgMTcgMzQuNUgyMlYzNy41SDE3TDE2Ljg4MzQgMzcuNTA2N0MxNi4zODYgMzcuNTY0NSAxNiAzNy45ODcyIDE2IDM4LjVDMTYgMzkuMDUyMyAxNi40NDc3IDM5LjUgMTcgMzkuNUgyMlY0Mi41SDE3TDE2Ljg4MzQgNDIuNTA2N0MxNi4zODYgNDIuNTY0NSAxNiA0Mi45ODcyIDE2IDQzLjVDMTYgNDQuMDUyMyAxNi40NDc3IDQ0LjUgMTcgNDQuNUgyMlY0NUMyMiA0Ny43NjE0IDI0LjIzODYgNTAgMjcgNTBIMjcuNVY1NC44MjgzTDI3LjUwNjcgNTQuOTQ0OUMyNy41NjQ1IDU1LjQ0MjIgMjcuOTg3MiA1NS44MjgzIDI4LjUgNTUuODI4M0MyOS4wNTIzIDU1LjgyODMgMjkuNSA1NS4zODA2IDI5LjUgNTQuODI4M1Y1MEgzMi41VjU0LjgyODNMMzIuNTA2NyA1NC45NDQ5QzMyLjU2NDUgNTUuNDQyMiAzMi45ODcyIDU1LjgyODMgMzMuNSA1NS44MjgzQzM0LjA1MjMgNTUuODI4MyAzNC41IDU1LjM4MDYgMzQuNSA1NC44MjgzVjUwSDM3LjVWNTQuODI4M0wzNy41MDY3IDU0Ljk0NDlDMzcuNTY0NSA1NS40NDIyIDM3Ljk4NzIgNTUuODI4MyAzOC41IDU1LjgyODNDMzkuMDUyMyA1NS44MjgzIDM5LjUgNTUuMzgwNiAzOS41IDU0LjgyODNWNTBINDIuNVY1NC44MjgzTDQyLjUwNjcgNTQuOTQ0OUM0Mi41NjQ1IDU1LjQ0MjIgNDIuOTg3MiA1NS44MjgzIDQzLjUgNTUuODI4M0M0NC4wNTIzIDU1LjgyODMgNDQuNSA1NS4zODA2IDQ0LjUgNTQuODI4M1Y1MEg0NUM0Ny43NjE0IDUwIDUwIDQ3Ljc2MTQgNTAgNDVWNDQuNUg1NC44MjgzTDU0Ljk0NDkgNDQuNDkzM0M1NS40NDIyIDQ0LjQzNTUgNTUuODI4MyA0NC4wMTI4IDU1LjgyODMgNDMuNUM1NS44MjgzIDQyLjk0NzcgNTUuMzgwNiA0Mi41IDU0LjgyODMgNDIuNUg1MFYzOS41SDU0LjgyODNMNTQuOTQ0OSAzOS40OTMzQzU1LjQ0MjIgMzkuNDM1NSA1NS44MjgzIDM5LjAxMjggNTUuODI4MyAzOC41QzU1LjgyODMgMzcuOTQ3NyA1NS4zODA2IDM3LjUgNTQuODI4MyAzNy41SDUwVjM0LjVINTQuODI4M0w1NC45NDQ5IDM0LjQ5MzNDNTUuNDQyMiAzNC40MzU1IDU1LjgyODMgMzQuMDEyOCA1NS44MjgzIDMzLjVDNTUuODI4MyAzMi45NDc3IDU1LjM4MDYgMzIuNSA1NC44MjgzIDMyLjVINTBWMjkuNUg1NC44MjgzTDU0Ljk0NDkgMjkuNDkzM0M1NS40NDIyIDI5LjQzNTUgNTUuODI4MyAyOS4wMTI4IDU1LjgyODMgMjguNUM1NS44MjgzIDI3Ljk0NzcgNTUuMzgwNiAyNy41IDU0LjgyODMgMjcuNUg1MFYyN0M1MCAyNC4yMzg2IDQ3Ljc2MTQgMjIgNDUgMjJINDQuNVYxN0w0NC40OTMzIDE2Ljg4MzRDNDQuNDM1NSAxNi4zODYgNDQuMDEyOCAxNiA0My41IDE2QzQyLjk0NzcgMTYgNDIuNSAxNi40NDc3IDQyLjUgMTdWMjJIMzkuNVYxN0wzOS40OTMzIDE2Ljg4MzRDMzkuNDM1NSAxNi4zODYgMzkuMDEyOCAxNiAzOC41IDE2QzM3Ljk0NzcgMTYgMzcuNSAxNi40NDc3IDM3LjUgMTdWMjJIMzQuNVYxN0wzNC40OTMzIDE2Ljg4MzRDMzQuNDM1NSAxNi4zODYgMzQuMDEyOCAxNiAzMy41IDE2QzMyLjk0NzcgMTYgMzIuNSAxNi40NDc3IDMyLjUgMTdWMjJIMjkuNVYxN0wyOS40OTMzIDE2Ljg4MzRaTTQ4IDI4LjVWMjdDNDggMjUuNDAyMyA0Ni43NTExIDI0LjA5NjMgNDUuMTc2MyAyNC4wMDUxTDQ1IDI0SDI3QzI1LjQwMjMgMjQgMjQuMDk2MyAyNS4yNDg5IDI0LjAwNTEgMjYuODIzN0wyNCAyN1Y0NUMyNCA0Ni41OTc3IDI1LjI0ODkgNDcuOTAzNyAyNi44MjM3IDQ3Ljk5NDlMMjcgNDhIMjguNUgzMy41SDM4LjVINDMuNUg0NUM0Ni41OTc3IDQ4IDQ3LjkwMzcgNDYuNzUxMSA0Ny45OTQ5IDQ1LjE3NjNMNDggNDVWNDMuNVYzOC41VjMzLjVWMjguNVoiIGNsaXAtcnVsZT0iZXZlbm9kZCIgZmlsbC1ydWxlPSJldmVub2RkIi8+JiN4YTs8cGF0aCBmaWxsPSIjQzg5M0ZGIiBkPSJNNDQgMzBDNDQgMjguODk1NCA0My4xMDQ2IDI4IDQyIDI4SDMwQzI4Ljg5NTQgMjggMjggMjguODk1NCAyOCAzMFY0MkMyOCA0My4xMDQ2IDI4Ljg5NTQgNDQgMzAgNDRINDJDNDMuMTA0NiA0NCA0NCA0My4xMDQ2IDQ0IDQyVjMwWk0zMCAzMEg0MlY0MkgzMFYzMFoiIGNsaXAtcnVsZT0iZXZlbm9kZCIgZmlsbC1ydWxlPSJldmVub2RkIi8+JiN4YTs8L3N2Zz4=;" vertex="1" parent="KQ32rnV0e1UypqC49VyJ-1">
          <mxGeometry x="87.5" y="284" width="80" height="80" as="geometry" />
        </mxCell>
        <mxCell id="cppDxNKuxkiZQhSEIAXv-16" value="" style="ellipse;whiteSpace=wrap;html=1;aspect=fixed;fillColor=#4f0599;strokeColor=none;" vertex="1" parent="KQ32rnV0e1UypqC49VyJ-1">
          <mxGeometry x="120" y="229" width="15" height="15" as="geometry" />
        </mxCell>
        <mxCell id="cppDxNKuxkiZQhSEIAXv-17" style="edgeStyle=orthogonalEdgeStyle;rounded=0;orthogonalLoop=1;jettySize=auto;html=1;exitX=0.5;exitY=1;exitDx=0;exitDy=0;entryX=0.5;entryY=0;entryDx=0;entryDy=0;strokeColor=#7F00FF;strokeWidth=2;endArrow=none;endFill=0;" edge="1" source="cppDxNKuxkiZQhSEIAXv-16" target="cppDxNKuxkiZQhSEIAXv-15" parent="KQ32rnV0e1UypqC49VyJ-1">
          <mxGeometry relative="1" as="geometry" />
        </mxCell>
        <mxCell id="cppDxNKuxkiZQhSEIAXv-24" style="edgeStyle=orthogonalEdgeStyle;rounded=0;orthogonalLoop=1;jettySize=auto;html=1;exitX=0.5;exitY=0;exitDx=0;exitDy=0;entryX=0.5;entryY=1;entryDx=0;entryDy=0;strokeColor=#7F00FF;strokeWidth=2;align=center;verticalAlign=middle;fontFamily=Helvetica;fontSize=11;fontColor=default;labelBackgroundColor=default;endArrow=none;endFill=0;" edge="1" parent="KQ32rnV0e1UypqC49VyJ-1" source="cppDxNKuxkiZQhSEIAXv-20" target="0EsCyrqUPOsvWNxH5G8m-0">
          <mxGeometry relative="1" as="geometry" />
        </mxCell>
        <mxCell id="cppDxNKuxkiZQhSEIAXv-20" value="" style="ellipse;whiteSpace=wrap;html=1;aspect=fixed;fillColor=#4f0599;strokeColor=none;" vertex="1" parent="KQ32rnV0e1UypqC49VyJ-1">
          <mxGeometry x="-587.5" y="229" width="15" height="15" as="geometry" />
        </mxCell>
        <mxCell id="cppDxNKuxkiZQhSEIAXv-22" value="private network" style="whiteSpace=wrap;html=1;fontFamily=Courier New;fontStyle=0;align=center;verticalAlign=middle;rounded=1;fontSize=10;strokeColor=#7F00FF;fontColor=#7F00FF;" vertex="1" parent="KQ32rnV0e1UypqC49VyJ-1">
          <mxGeometry x="380" y="222.75" width="130" height="27.5" as="geometry" />
        </mxCell>
      </root>
    </mxGraphModel>
  </diagram>
</mxfile>
